<svg xmlns="http://www.w3.org/2000/svg" viewBox="0 0 45 45"><g fill="#000" fill-rule="evenodd" stroke="#000" stroke-width="1.5" stroke-linecap="round" stroke-linejoin="round"><path d="M 22,10 C 22,12 24,14 24,16 C 24,18 22,20 22,22 C 22,24 24,26 24,28 L 20,28 C 20,26 18,24 18,22 C 18,20 20,18 20,16 C 20,14 22,12 22,10 z"/><path d="M 22,10 C 22,8 24,8 24,8 C 24,8 20,8 20,10"/><path d="M 22.5, 35 C 22.5, 37 20.5, 39 18.5, 39 C 16.5, 39 14.5, 37 14.5, 35 C 14.5, 33 16.5, 31 18.5, 31 C 20.5, 31 22.5, 33 22.5, 35 z"/><path d="M 26.5, 35 C 26.5, 37 28.5, 39 30.5, 39 C 32.5, 39 34.5, 37 34.5, 35 C 34.5, 33 32.5, 31 30.5, 31 C 28.5, 31 26.5, 33 26.5, 35 z"/></g></svg>