<svg xmlns="http://www.w3.org/2000/svg" viewBox="0 0 45 45"><g fill="#fff" fill-rule="evenodd" stroke="#000" stroke-width="1.5" stroke-linecap="round" stroke-linejoin="round"><path d="M 22,10 C 22.5,10 25,12 25,14 C 25,16 22.5,18 22.5,20 C 22.5,22 25,24 25,26 C 25,28 22.5,30 22.5,32 C 22.5,34 25,36 25,38 L 20,38 C 20,36 17.5,34 17.5,32 C 17.5,30 20,28 20,26 C 20,24 17.5,22 17.5,20 C 17.5,18 20,16 20,14 C 20,12 22.5,10 22,10 z"/><path d="M 22.5,10 C 22.5,8 24.5,8 24.5,8 C 24.5,8 20.5,8 20.5,10"/></g></svg>