<svg xmlns="http://www.w3.org/2000/svg" viewBox="0 0 45 45"><g fill="#fff" fill-rule="evenodd" stroke="#000" stroke-width="1.5" stroke-linecap="round" stroke-linejoin="round"><path d="M22.5 11.63c-2.21 0-4 1.79-4 4 0 .89.29 1.71.78 2.38C17.33 19.13 16 21.22 16 23.63c0 2.03.94 3.84 2.41 5.03-3 1.06-7.41 5.55-7.41 13.47h23c0-7.92-4.41-12.41-7.41-13.47C28.06 27.47 29 25.66 29 23.63c0-2.41-1.33-4.5-3.28-5.62.49-.67.78-1.49.78-2.38 0-2.21-1.79-4-4-4z"/><path d="M22.5 25s4.5-7 4.5-8.5a4.5 4.5 0 1 0-9 0C18 18 22.5 25 22.5 25z"/><path d="M11.5 39.5 H33.5 L 22.5 35.5 z"/></g></svg>